<svg id="visual" viewBox="0 0 960 300" width="960" height="300" xmlns="http://www.w3.org/2000/svg" xmlns:xlink="http://www.w3.org/1999/xlink" version="1.1"><path d="M0 115L26.7 109.7C53.3 104.3 106.7 93.7 160 92.2C213.3 90.7 266.7 98.3 320 99.8C373.3 101.3 426.7 96.7 480 96.7C533.3 96.7 586.7 101.3 640 107.5C693.3 113.7 746.7 121.3 800 123.3C853.3 125.3 906.7 121.7 933.3 119.8L960 118L960 0L933.3 0C906.7 0 853.3 0 800 0C746.7 0 693.3 0 640 0C586.7 0 533.3 0 480 0C426.7 0 373.3 0 320 0C266.7 0 213.3 0 160 0C106.7 0 53.3 0 26.7 0L0 0Z" fill="#77c594"></path><path d="M0 95L26.7 89.5C53.3 84 106.7 73 160 72.2C213.3 71.3 266.7 80.7 320 86.7C373.3 92.7 426.7 95.3 480 91.2C533.3 87 586.7 76 640 71.2C693.3 66.3 746.7 67.7 800 72.2C853.3 76.7 906.7 84.3 933.3 88.2L960 92L960 0L933.3 0C906.7 0 853.3 0 800 0C746.7 0 693.3 0 640 0C586.7 0 533.3 0 480 0C426.7 0 373.3 0 320 0C266.7 0 213.3 0 160 0C106.7 0 53.3 0 26.7 0L0 0Z" fill="#96d8af"></path><path d="M0 53L26.7 55C53.3 57 106.7 61 160 61.2C213.3 61.3 266.7 57.7 320 52.7C373.3 47.7 426.7 41.3 480 43.5C533.3 45.7 586.7 56.3 640 61.3C693.3 66.3 746.7 65.7 800 66C853.3 66.3 906.7 67.7 933.3 68.3L960 69L960 0L933.3 0C906.7 0 853.3 0 800 0C746.7 0 693.3 0 640 0C586.7 0 533.3 0 480 0C426.7 0 373.3 0 320 0C266.7 0 213.3 0 160 0C106.7 0 53.3 0 26.7 0L0 0Z" fill="#b6ecc9"></path><path d="M0 36L26.7 34.2C53.3 32.3 106.7 28.7 160 26.8C213.3 25 266.7 25 320 28.5C373.3 32 426.7 39 480 37.2C533.3 35.3 586.7 24.7 640 21.7C693.3 18.7 746.7 23.3 800 27.3C853.3 31.3 906.7 34.7 933.3 36.3L960 38L960 0L933.3 0C906.7 0 853.3 0 800 0C746.7 0 693.3 0 640 0C586.7 0 533.3 0 480 0C426.7 0 373.3 0 320 0C266.7 0 213.3 0 160 0C106.7 0 53.3 0 26.7 0L0 0Z" fill="#d5ffe4"></path></svg>